<svg width="32" height="32" viewBox="0 0 32 32" fill="none" xmlns="http://www.w3.org/2000/svg">
<g clip-path="url(#clip0)">
<path d="M15.2944 15.6571C15.6833 16.1196 16.3167 16.1196 16.7111 15.6571L22.7611 8.51961C24.5167 6.44461 24.4167 3.00711 22.45 1.09461C20.7389 -0.574141 18.1889 -0.274141 16.6222 1.57586L16 2.30711L15.3833 1.58211C13.8167 -0.274141 11.2667 -0.574141 9.55556 1.09461C7.59444 3.00711 7.48889 6.44461 9.24444 8.51961L15.2944 15.6571ZM31.4056 20.5071C30.75 19.8384 29.7278 19.8821 29.0389 20.5071L23.9056 25.1259C23.2778 25.6946 22.4944 26.0009 21.6833 26.0009H15.1111C14.6222 26.0009 14.2222 25.5509 14.2222 25.0009C14.2222 24.4509 14.6222 24.0009 15.1111 24.0009H19.4611C20.3444 24.0009 21.1667 23.3196 21.3111 22.3384C21.4944 21.0884 20.6389 20.0009 19.5556 20.0009H10.6667C9.16667 20.0009 7.71667 20.5821 6.55 21.6446L3.96667 24.0009H0.888889C0.4 24.0009 0 24.4509 0 25.0009V31.0009C0 31.5509 0.4 32.0009 0.888889 32.0009H20.7111C21.5167 32.0009 22.3 31.6946 22.9333 31.1259L31.3333 23.5634C32.1778 22.8071 32.2444 21.3571 31.4056 20.5071Z" fill="white"/>
</g>
<defs>
<clipPath id="clip0">
<rect width="32" height="32" fill="white"/>
</clipPath>
</defs>
</svg>
