<svg width="32" height="32" viewBox="0 0 32 32" fill="none" xmlns="http://www.w3.org/2000/svg">
<g clip-path="url(#clip0)">
<path d="M24.4004 11.9991H16.8004V15.4991C16.8004 17.9804 15.1854 19.9991 13.2004 19.9991C11.2154 19.9991 9.60042 17.9804 9.60042 15.4991V7.89914L6.35542 10.3366C5.39042 11.0554 4.80042 12.3616 4.80042 13.7616V16.7179L0.800423 19.6054C0.0354232 20.1554 -0.229577 21.3804 0.215423 22.3366L4.21542 30.9991C4.65542 31.9554 5.63542 32.2804 6.40042 31.7304L11.5704 27.9991H18.4004C20.1654 27.9991 21.6004 26.2054 21.6004 23.9991H22.4004C23.2854 23.9991 24.0004 23.1054 24.0004 21.9991V17.9991H24.4004C25.0654 17.9991 25.6004 17.3304 25.6004 16.4991V13.4991C25.6004 12.6679 25.0654 11.9991 24.4004 11.9991ZM31.7854 9.66164L27.7854 0.999136C27.3454 0.0428863 26.3654 -0.282114 25.6004 0.267886L20.4304 3.99914H15.3204C14.7204 3.99914 14.1354 4.21164 13.6254 4.60539L11.9504 5.91164C11.4804 6.27414 11.2004 6.91789 11.2004 7.60539V15.4991C11.2004 16.8804 12.0954 17.9991 13.2004 17.9991C14.3054 17.9991 15.2004 16.8804 15.2004 15.4991V9.99914H24.4004C25.9454 9.99914 27.2004 11.5679 27.2004 13.4991V15.2804L31.2004 12.3929C31.9654 11.8366 32.2254 10.6179 31.7854 9.66164V9.66164Z" fill="white"/>
</g>
<defs>
<clipPath id="clip0">
<rect width="32" height="32" fill="white"/>
</clipPath>
</defs>
</svg>
