<svg width="1089" height="594" viewBox="0 0 1089 594" fill="none" xmlns="http://www.w3.org/2000/svg">
<path d="M1014.41 220.217C1014.41 225.859 1009.84 230.434 1004.2 230.434C998.568 230.434 994 225.859 994 220.217C994 214.574 998.568 210 1004.2 210C1009.82 210 1014.41 214.574 1014.41 220.217Z" stroke="#6842C2" stroke-width="3" stroke-miterlimit="10" stroke-linecap="round" stroke-linejoin="round"/>
<path d="M1011.58 227.265L1018.78 234.491" stroke="#6842C2" stroke-width="3" stroke-miterlimit="10" stroke-linecap="round" stroke-linejoin="round"/>
<path d="M245.847 153.154L256.582 163.903" stroke="#6842C2" stroke-width="3" stroke-miterlimit="10" stroke-linecap="round" stroke-linejoin="round"/>
<path d="M256.582 153.154L245.847 163.903" stroke="#6842C2" stroke-width="3" stroke-miterlimit="10" stroke-linecap="round" stroke-linejoin="round"/>
<path d="M861.155 406.633L871.89 417.382" stroke="#6842C2" stroke-width="3" stroke-miterlimit="10" stroke-linecap="round" stroke-linejoin="round"/>
<path d="M871.89 406.633L861.155 417.382" stroke="#6842C2" stroke-width="3" stroke-miterlimit="10" stroke-linecap="round" stroke-linejoin="round"/>
<path d="M274.657 501.133V516.333" stroke="#6842C2" stroke-width="3" stroke-miterlimit="10" stroke-linecap="round" stroke-linejoin="round"/>
<path d="M282.266 508.732H267.068" stroke="#6842C2" stroke-width="3" stroke-miterlimit="10" stroke-linecap="round" stroke-linejoin="round"/>
<path d="M69.6986 250.247C69.6986 255.337 65.5748 259.485 60.4733 259.485C55.3896 259.485 51.248 255.355 51.248 250.247C51.248 245.156 55.3719 241.009 60.4733 241.009C65.5748 241.027 69.6986 245.156 69.6986 250.247Z" stroke="#6842C2" stroke-width="3" stroke-miterlimit="10" stroke-linecap="round" stroke-linejoin="round"/>
<path d="M612.628 11.0563C612.628 16.1469 608.504 20.2941 603.403 20.2941C598.319 20.2941 594.177 16.1647 594.177 11.0563C594.177 5.96563 598.301 1.81836 603.403 1.81836C608.504 1.83616 612.628 5.96563 612.628 11.0563Z" stroke="#6842C2" stroke-width="3" stroke-miterlimit="10" stroke-linecap="round" stroke-linejoin="round"/>
<path d="M747.971 553.585C747.971 558.676 743.847 562.823 738.746 562.823C733.662 562.823 729.521 558.693 729.521 553.585C729.521 548.494 733.644 544.347 738.746 544.347C743.847 544.365 747.971 548.494 747.971 553.585Z" stroke="#6842C2" stroke-width="3" stroke-miterlimit="10" stroke-linecap="round" stroke-linejoin="round"/>
<path d="M301.341 477.691C303.186 477.691 304.682 476.194 304.682 474.346C304.682 472.498 303.186 471 301.341 471C299.496 471 298 472.498 298 474.346C298 476.194 299.496 477.691 301.341 477.691Z" fill="#33FF47"/>
<path d="M2 292C3.10457 292 4 291.105 4 290C4 288.895 3.10457 288 2 288C0.895431 288 0 288.895 0 290C0 291.105 0.895431 292 2 292Z" fill="#24EF7F"/>
<path d="M36.1823 295.346C36.1823 296.918 34.9096 298.191 33.3411 298.191C31.7727 298.191 30.5 296.918 30.5 295.346C30.5 293.773 31.7727 292.5 33.3411 292.5C34.9096 292.5 36.1823 293.773 36.1823 295.346Z" stroke="#6842C2"/>
<path d="M60 176C63.3137 176 66 173.314 66 170C66 166.686 63.3137 164 60 164C56.6863 164 54 166.686 54 170C54 173.314 56.6863 176 60 176Z" fill="#75F782"/>
<path d="M29 263C31.2091 263 33 261.209 33 259C33 256.791 31.2091 255 29 255C26.7909 255 25 256.791 25 259C25 261.209 26.7909 263 29 263Z" fill="#A95CE4"/>
<path d="M879.5 367C879.5 368.933 877.933 370.5 876 370.5C874.067 370.5 872.5 368.933 872.5 367C872.5 365.067 874.067 363.5 876 363.5C877.933 363.5 879.5 365.067 879.5 367Z" stroke="#24EF7F"/>
<path d="M22.6466 397.698C22.6466 399.271 21.374 400.544 19.8055 400.544C18.237 400.544 16.9644 399.271 16.9644 397.698C16.9644 396.126 18.237 394.853 19.8055 394.853C21.374 394.853 22.6466 396.126 22.6466 397.698Z" stroke="#6842C2"/>
<path d="M45.9853 397.698C45.9853 399.271 44.7126 400.544 43.1441 400.544C41.5756 400.544 40.303 399.271 40.303 397.698C40.303 396.126 41.5756 394.853 43.1441 394.853C44.7126 394.853 45.9853 396.126 45.9853 397.698Z" stroke="#6842C2"/>
<path d="M781 522C782.657 522 784 520.657 784 519C784 517.343 782.657 516 781 516C779.343 516 778 517.343 778 519C778 520.657 779.343 522 781 522Z" fill="#75F782"/>
<path d="M902.643 389.723C902.643 391.656 901.076 393.223 899.143 393.223C897.21 393.223 895.643 391.656 895.643 389.723C895.643 387.79 897.21 386.223 899.143 386.223C901.076 386.223 902.643 387.79 902.643 389.723Z" stroke="#24EF7F"/>
<path d="M22.6466 421.069C22.6466 422.641 21.374 423.915 19.8055 423.915C18.237 423.915 16.9644 422.641 16.9644 421.069C16.9644 419.497 18.237 418.223 19.8055 418.223C21.374 418.223 22.6466 419.497 22.6466 421.069Z" stroke="#6842C2"/>
<path d="M45.9853 421.069C45.9853 422.641 44.7126 423.915 43.1441 423.915C41.5756 423.915 40.303 422.641 40.303 421.069C40.303 419.497 41.5756 418.223 43.1441 418.223C44.7126 418.223 45.9853 419.497 45.9853 421.069Z" stroke="#6842C2"/>
<path d="M820 570C823.314 570 826 567.314 826 564C826 560.686 823.314 558 820 558C816.686 558 814 560.686 814 564C814 567.314 816.686 570 820 570Z" fill="#7545E8"/>
<path d="M694.325 590.422C694.325 591.994 693.052 593.268 691.484 593.268C689.915 593.268 688.643 591.994 688.643 590.422C688.643 588.85 689.915 587.576 691.484 587.576C693.052 587.576 694.325 588.85 694.325 590.422Z" stroke="#04D361"/>
<path d="M348.001 547.768C349.846 547.768 351.342 546.27 351.342 544.422C351.342 542.574 349.846 541.076 348.001 541.076C346.156 541.076 344.66 542.574 344.66 544.422C344.66 546.27 346.156 547.768 348.001 547.768Z" fill="#33FF47"/>
<path d="M261 583C264.314 583 267 580.314 267 577C267 573.686 264.314 571 261 571C257.686 571 255 573.686 255 577C255 580.314 257.686 583 261 583Z" fill="#75F782"/>
<path d="M822.342 85.6914C824.187 85.6914 825.683 84.1935 825.683 82.3457C825.683 80.4979 824.187 79 822.342 79C820.496 79 819 80.4979 819 82.3457C819 84.1935 820.496 85.6914 822.342 85.6914Z" fill="#9871F5"/>
<path d="M845.662 85.6914C847.508 85.6914 849.004 84.1935 849.004 82.3457C849.004 80.4979 847.508 79 845.662 79C843.817 79 842.321 80.4979 842.321 82.3457C842.321 84.1935 843.817 85.6914 845.662 85.6914Z" fill="#9871F5"/>
<path d="M869.001 85.6914C870.846 85.6914 872.342 84.1935 872.342 82.3457C872.342 80.4979 870.846 79 869.001 79C867.156 79 865.66 80.4979 865.66 82.3457C865.66 84.1935 867.156 85.6914 869.001 85.6914Z" fill="#9871F5"/>
<path d="M822.341 109.062C824.186 109.062 825.682 107.564 825.682 105.716C825.682 103.869 824.186 102.371 822.341 102.371C820.496 102.371 819 103.869 819 105.716C819 107.564 820.496 109.062 822.341 109.062Z" fill="#9871F5"/>
<path d="M845.662 109.062C847.508 109.062 849.004 107.564 849.004 105.716C849.004 103.869 847.508 102.371 845.662 102.371C843.817 102.371 842.321 103.869 842.321 105.716C842.321 107.564 843.817 109.062 845.662 109.062Z" fill="#9871F5"/>
<path d="M869.001 109.062C870.846 109.062 872.342 107.564 872.342 105.716C872.342 103.869 870.846 102.371 869.001 102.371C867.156 102.371 865.66 103.869 865.66 105.716C865.66 107.564 867.156 109.062 869.001 109.062Z" fill="#9871F5"/>
<path d="M233.546 19.0874C233.546 20.6597 232.273 21.9331 230.705 21.9331C229.136 21.9331 227.864 20.6597 227.864 19.0874C227.864 17.5151 229.136 16.2417 230.705 16.2417C232.273 16.2417 233.546 17.5151 233.546 19.0874Z" stroke="#6842C2"/>
<path d="M256.866 19.0874C256.866 20.6597 255.593 21.9331 254.025 21.9331C252.457 21.9331 251.184 20.6597 251.184 19.0874C251.184 17.5151 252.457 16.2417 254.025 16.2417C255.593 16.2417 256.866 17.5151 256.866 19.0874Z" stroke="#6842C2"/>
<path d="M280.204 19.0874C280.204 20.6597 278.932 21.9331 277.363 21.9331C275.795 21.9331 274.522 20.6597 274.522 19.0874C274.522 17.5151 275.795 16.2417 277.363 16.2417C278.932 16.2417 280.204 17.5151 280.204 19.0874Z" stroke="#6842C2"/>
<path d="M233.545 42.458C233.545 44.0303 232.273 45.3037 230.704 45.3037C229.136 45.3037 227.863 44.0303 227.863 42.458C227.863 40.8857 229.136 39.6123 230.704 39.6123C232.273 39.6123 233.545 40.8857 233.545 42.458Z" stroke="#6842C2"/>
<path d="M256.866 42.458C256.866 44.0303 255.593 45.3037 254.025 45.3037C252.457 45.3037 251.184 44.0303 251.184 42.458C251.184 40.8857 252.457 39.6123 254.025 39.6123C255.593 39.6123 256.866 40.8857 256.866 42.458Z" stroke="#6842C2"/>
<path d="M280.206 42.458C280.206 44.0303 278.933 45.3037 277.365 45.3037C275.796 45.3037 274.523 44.0303 274.523 42.458C274.523 40.8857 275.796 39.6123 277.365 39.6123C278.933 39.6123 280.206 40.8857 280.206 42.458Z" stroke="#6842C2"/>
<path d="M1088.5 374.346C1088.5 375.918 1087.23 377.191 1085.66 377.191C1084.09 377.191 1082.82 375.918 1082.82 374.346C1082.82 372.773 1084.09 371.5 1085.66 371.5C1087.23 371.5 1088.5 372.773 1088.5 374.346Z" stroke="#04D361"/>
<path d="M1088.5 397.716C1088.5 399.289 1087.23 400.562 1085.66 400.562C1084.09 400.562 1082.82 399.289 1082.82 397.716C1082.82 396.144 1084.09 394.871 1085.66 394.871C1087.23 394.871 1088.5 396.144 1088.5 397.716Z" stroke="#04D361"/>
<path d="M1088.5 421.069C1088.5 422.641 1087.23 423.915 1085.66 423.915C1084.09 423.915 1082.82 422.641 1082.82 421.069C1082.82 419.497 1084.09 418.223 1085.66 418.223C1087.23 418.223 1088.5 419.497 1088.5 421.069Z" stroke="#04D361"/>
<path d="M1088.5 444.44C1088.5 446.012 1087.23 447.286 1085.66 447.286C1084.09 447.286 1082.82 446.012 1082.82 444.44C1082.82 442.868 1084.09 441.594 1085.66 441.594C1087.23 441.594 1088.5 442.868 1088.5 444.44Z" stroke="#04D361"/>
<path d="M1088.5 467.793C1088.5 469.365 1087.23 470.638 1085.66 470.638C1084.09 470.638 1082.82 469.365 1082.82 467.793C1082.82 466.22 1084.09 464.947 1085.66 464.947C1087.23 464.947 1088.5 466.22 1088.5 467.793Z" stroke="#04D361"/>
<path d="M470.181 30.3457C470.181 31.918 468.909 33.1914 467.34 33.1914C465.772 33.1914 464.499 31.918 464.499 30.3457C464.499 28.7734 465.772 27.5 467.34 27.5C468.909 27.5 470.181 28.7734 470.181 30.3457Z" stroke="#04D361"/>
<path d="M470.181 53.6988C470.181 55.271 468.909 56.5445 467.34 56.5445C465.772 56.5445 464.499 55.271 464.499 53.6988C464.499 52.1265 465.772 50.853 467.34 50.853C468.909 50.853 470.181 52.1265 470.181 53.6988Z" stroke="#04D361"/>
<path d="M1065.16 374.346C1065.16 375.918 1063.89 377.191 1062.32 377.191C1060.75 377.191 1059.48 375.918 1059.48 374.346C1059.48 372.773 1060.75 371.5 1062.32 371.5C1063.89 371.5 1065.16 372.773 1065.16 374.346Z" stroke="#04D361"/>
<path d="M1065.16 397.716C1065.16 399.289 1063.89 400.562 1062.32 400.562C1060.75 400.562 1059.48 399.289 1059.48 397.716C1059.48 396.144 1060.75 394.871 1062.32 394.871C1063.89 394.871 1065.16 396.144 1065.16 397.716Z" stroke="#04D361"/>
<path d="M1065.16 421.069C1065.16 422.641 1063.89 423.915 1062.32 423.915C1060.75 423.915 1059.48 422.641 1059.48 421.069C1059.48 419.497 1060.75 418.223 1062.32 418.223C1063.89 418.223 1065.16 419.497 1065.16 421.069Z" stroke="#04D361"/>
<path d="M1065.16 444.44C1065.16 446.012 1063.89 447.286 1062.32 447.286C1060.75 447.286 1059.48 446.012 1059.48 444.44C1059.48 442.868 1060.75 441.594 1062.32 441.594C1063.89 441.594 1065.16 442.868 1065.16 444.44Z" stroke="#04D361"/>
<path d="M1065.16 467.793C1065.16 469.365 1063.89 470.638 1062.32 470.638C1060.75 470.638 1059.48 469.365 1059.48 467.793C1059.48 466.22 1060.75 464.947 1062.32 464.947C1063.89 464.947 1065.16 466.22 1065.16 467.793Z" stroke="#04D361"/>
<path d="M446.843 30.3457C446.843 31.918 445.57 33.1914 444.002 33.1914C442.433 33.1914 441.161 31.918 441.161 30.3457C441.161 28.7734 442.433 27.5 444.002 27.5C445.57 27.5 446.843 28.7734 446.843 30.3457Z" stroke="#04D361"/>
<path d="M446.843 53.6988C446.843 55.271 445.57 56.5445 444.002 56.5445C442.433 56.5445 441.161 55.271 441.161 53.6988C441.161 52.1265 442.433 50.853 444.002 50.853C445.57 50.853 446.843 52.1265 446.843 53.6988Z" stroke="#04D361"/>
<path d="M1041.84 374.346C1041.84 375.918 1040.57 377.191 1039 377.191C1037.43 377.191 1036.16 375.918 1036.16 374.346C1036.16 372.773 1037.43 371.5 1039 371.5C1040.57 371.5 1041.84 372.773 1041.84 374.346Z" stroke="#04D361"/>
<path d="M1041.84 397.716C1041.84 399.289 1040.57 400.562 1039 400.562C1037.43 400.562 1036.16 399.289 1036.16 397.716C1036.16 396.144 1037.43 394.871 1039 394.871C1040.57 394.871 1041.84 396.144 1041.84 397.716Z" stroke="#04D361"/>
<path d="M1041.84 421.069C1041.84 422.641 1040.57 423.915 1039 423.915C1037.43 423.915 1036.16 422.641 1036.16 421.069C1036.16 419.497 1037.43 418.223 1039 418.223C1040.57 418.223 1041.84 419.497 1041.84 421.069Z" stroke="#04D361"/>
<path d="M1041.84 444.44C1041.84 446.012 1040.57 447.286 1039 447.286C1037.43 447.286 1036.16 446.012 1036.16 444.44C1036.16 442.868 1037.43 441.594 1039 441.594C1040.57 441.594 1041.84 442.868 1041.84 444.44Z" stroke="#04D361"/>
<path d="M1041.84 467.793C1041.84 469.365 1040.57 470.638 1039 470.638C1037.43 470.638 1036.16 469.365 1036.16 467.793C1036.16 466.22 1037.43 464.947 1039 464.947C1040.57 464.947 1041.84 466.22 1041.84 467.793Z" stroke="#04D361"/>
<path d="M423.521 30.3457C423.521 31.918 422.248 33.1914 420.68 33.1914C419.111 33.1914 417.838 31.918 417.838 30.3457C417.838 28.7734 419.111 27.5 420.68 27.5C422.248 27.5 423.521 28.7734 423.521 30.3457Z" stroke="#04D361"/>
<path d="M423.521 53.6988C423.521 55.271 422.248 56.5445 420.68 56.5445C419.111 56.5445 417.838 55.271 417.838 53.6988C417.838 52.1265 419.111 50.853 420.68 50.853C422.248 50.853 423.521 52.1265 423.521 53.6988Z" stroke="#04D361"/>
<path d="M1018.5 374.346C1018.5 375.918 1017.23 377.191 1015.66 377.191C1014.09 377.191 1012.82 375.918 1012.82 374.346C1012.82 372.773 1014.09 371.5 1015.66 371.5C1017.23 371.5 1018.5 372.773 1018.5 374.346Z" stroke="#04D361"/>
<path d="M1018.5 397.716C1018.5 399.289 1017.23 400.562 1015.66 400.562C1014.09 400.562 1012.82 399.289 1012.82 397.716C1012.82 396.144 1014.09 394.871 1015.66 394.871C1017.23 394.871 1018.5 396.144 1018.5 397.716Z" stroke="#04D361"/>
<path d="M1018.5 421.069C1018.5 422.642 1017.23 423.915 1015.66 423.915C1014.09 423.915 1012.82 422.642 1012.82 421.069C1012.82 419.497 1014.09 418.224 1015.66 418.224C1017.23 418.224 1018.5 419.497 1018.5 421.069Z" stroke="#04D361"/>
<path d="M1018.5 444.44C1018.5 446.012 1017.23 447.286 1015.66 447.286C1014.09 447.286 1012.82 446.012 1012.82 444.44C1012.82 442.868 1014.09 441.594 1015.66 441.594C1017.23 441.594 1018.5 442.868 1018.5 444.44Z" stroke="#04D361"/>
<path d="M1018.5 467.793C1018.5 469.365 1017.23 470.638 1015.66 470.638C1014.09 470.638 1012.82 469.365 1012.82 467.793C1012.82 466.22 1014.09 464.947 1015.66 464.947C1017.23 464.947 1018.5 466.22 1018.5 467.793Z" stroke="#04D361"/>
<path d="M400.182 30.3457C400.182 31.918 398.91 33.1914 397.341 33.1914C395.773 33.1914 394.5 31.918 394.5 30.3457C394.5 28.7734 395.773 27.5 397.341 27.5C398.91 27.5 400.182 28.7734 400.182 30.3457Z" stroke="#04D361"/>
<path d="M400.182 53.6988C400.182 55.271 398.91 56.5445 397.341 56.5445C395.773 56.5445 394.5 55.271 394.5 53.6988C394.5 52.1265 395.773 50.853 397.341 50.853C398.91 50.853 400.182 52.1265 400.182 53.6988Z" stroke="#04D361"/>
<path d="M304.182 565.346C304.182 566.918 302.91 568.191 301.341 568.191C299.773 568.191 298.5 566.918 298.5 565.346C298.5 563.773 299.773 562.5 301.341 562.5C302.91 562.5 304.182 563.773 304.182 565.346Z" stroke="#6842C2"/>
<path d="M327.521 565.346C327.521 566.918 326.248 568.191 324.68 568.191C323.111 568.191 321.838 566.918 321.838 565.346C321.838 563.773 323.111 562.5 324.68 562.5C326.248 562.5 327.521 563.773 327.521 565.346Z" stroke="#6842C2"/>
<path d="M304.182 588.698C304.182 590.271 302.91 591.544 301.341 591.544C299.773 591.544 298.5 590.271 298.5 588.698C298.5 587.126 299.773 585.853 301.341 585.853C302.91 585.853 304.182 587.126 304.182 588.698Z" stroke="#6842C2"/>
<path d="M327.521 588.698C327.521 590.271 326.248 591.544 324.68 591.544C323.111 591.544 321.838 590.271 321.838 588.698C321.838 587.126 323.111 585.853 324.68 585.853C326.248 585.853 327.521 587.126 327.521 588.698Z" stroke="#6842C2"/>
<path d="M351.182 565.346C351.182 566.918 349.91 568.191 348.341 568.191C346.773 568.191 345.5 566.918 345.5 565.346C345.5 563.773 346.773 562.5 348.341 562.5C349.91 562.5 351.182 563.773 351.182 565.346Z" stroke="#6842C2"/>
<path d="M374.521 565.346C374.521 566.918 373.248 568.191 371.68 568.191C370.111 568.191 368.838 566.918 368.838 565.346C368.838 563.773 370.111 562.5 371.68 562.5C373.248 562.5 374.521 563.773 374.521 565.346Z" stroke="#6842C2"/>
<path d="M351.182 588.699C351.182 590.271 349.91 591.544 348.341 591.544C346.773 591.544 345.5 590.271 345.5 588.699C345.5 587.126 346.773 585.853 348.341 585.853C349.91 585.853 351.182 587.126 351.182 588.699Z" stroke="#6842C2"/>
<path d="M374.521 588.699C374.521 590.271 373.248 591.544 371.68 591.544C370.111 591.544 368.838 590.271 368.838 588.699C368.838 587.126 370.111 585.853 371.68 585.853C373.248 585.853 374.521 587.126 374.521 588.699Z" stroke="#6842C2"/>
</svg>
