<svg width="94" height="16" viewBox="0 0 94 16" fill="none" xmlns="http://www.w3.org/2000/svg">
<path d="M11.96 15L11.942 7.44L8.234 13.668H6.92L3.23 7.602V15H0.494V2.4H2.906L7.622 10.23L12.266 2.4H14.66L14.696 15H11.96ZM22.0954 15.144C21.0754 15.144 20.1574 14.934 19.3414 14.514C18.5374 14.082 17.9074 13.488 17.4514 12.732C16.9954 11.976 16.7674 11.118 16.7674 10.158C16.7674 9.198 16.9954 8.34 17.4514 7.584C17.9074 6.828 18.5374 6.24 19.3414 5.82C20.1574 5.388 21.0754 5.172 22.0954 5.172C23.1154 5.172 24.0274 5.388 24.8314 5.82C25.6354 6.24 26.2654 6.828 26.7214 7.584C27.1774 8.34 27.4054 9.198 27.4054 10.158C27.4054 11.118 27.1774 11.976 26.7214 12.732C26.2654 13.488 25.6354 14.082 24.8314 14.514C24.0274 14.934 23.1154 15.144 22.0954 15.144ZM22.0954 12.84C22.8154 12.84 23.4034 12.6 23.8594 12.12C24.3274 11.628 24.5614 10.974 24.5614 10.158C24.5614 9.342 24.3274 8.694 23.8594 8.214C23.4034 7.722 22.8154 7.476 22.0954 7.476C21.3754 7.476 20.7814 7.722 20.3134 8.214C19.8454 8.694 19.6114 9.342 19.6114 10.158C19.6114 10.974 19.8454 11.628 20.3134 12.12C20.7814 12.6 21.3754 12.84 22.0954 12.84ZM35.1683 5.172C36.3683 5.172 37.3343 5.532 38.0663 6.252C38.8103 6.972 39.1823 8.04 39.1823 9.456V15H36.3743V9.888C36.3743 9.12 36.2063 8.55 35.8703 8.178C35.5343 7.794 35.0483 7.602 34.4123 7.602C33.7043 7.602 33.1403 7.824 32.7203 8.268C32.3003 8.7 32.0903 9.348 32.0903 10.212V15H29.2823V5.316H31.9643V6.45C32.3363 6.042 32.7983 5.73 33.3503 5.514C33.9023 5.286 34.5083 5.172 35.1683 5.172ZM41.7276 5.316H44.5356V15H41.7276V5.316ZM43.1316 3.966C42.6156 3.966 42.1956 3.816 41.8716 3.516C41.5476 3.216 41.3856 2.844 41.3856 2.4C41.3856 1.956 41.5476 1.584 41.8716 1.284C42.1956 0.983999 42.6156 0.833999 43.1316 0.833999C43.6476 0.833999 44.0676 0.977999 44.3916 1.266C44.7156 1.554 44.8776 1.914 44.8776 2.346C44.8776 2.814 44.7156 3.204 44.3916 3.516C44.0676 3.816 43.6476 3.966 43.1316 3.966ZM53.3877 14.532C53.1117 14.736 52.7697 14.892 52.3617 15C51.9657 15.096 51.5457 15.144 51.1017 15.144C49.9497 15.144 49.0557 14.85 48.4197 14.262C47.7957 13.674 47.4837 12.81 47.4837 11.67V7.692H45.9897V5.532H47.4837V3.174H50.2917V5.532H52.7037V7.692H50.2917V11.634C50.2917 12.042 50.3937 12.36 50.5977 12.588C50.8137 12.804 51.1137 12.912 51.4977 12.912C51.9417 12.912 52.3197 12.792 52.6317 12.552L53.3877 14.532ZM59.2731 15.144C58.2531 15.144 57.3351 14.934 56.5191 14.514C55.7151 14.082 55.0851 13.488 54.6291 12.732C54.1731 11.976 53.9451 11.118 53.9451 10.158C53.9451 9.198 54.1731 8.34 54.6291 7.584C55.0851 6.828 55.7151 6.24 56.5191 5.82C57.3351 5.388 58.2531 5.172 59.2731 5.172C60.2931 5.172 61.2051 5.388 62.0091 5.82C62.8131 6.24 63.4431 6.828 63.8991 7.584C64.3551 8.34 64.5831 9.198 64.5831 10.158C64.5831 11.118 64.3551 11.976 63.8991 12.732C63.4431 13.488 62.8131 14.082 62.0091 14.514C61.2051 14.934 60.2931 15.144 59.2731 15.144ZM59.2731 12.84C59.9931 12.84 60.5811 12.6 61.0371 12.12C61.5051 11.628 61.7391 10.974 61.7391 10.158C61.7391 9.342 61.5051 8.694 61.0371 8.214C60.5811 7.722 59.9931 7.476 59.2731 7.476C58.5531 7.476 57.9591 7.722 57.4911 8.214C57.0231 8.694 56.7891 9.342 56.7891 10.158C56.7891 10.974 57.0231 11.628 57.4911 12.12C57.9591 12.6 58.5531 12.84 59.2731 12.84ZM69.1421 6.594C69.4781 6.126 69.9281 5.772 70.4921 5.532C71.0681 5.292 71.7281 5.172 72.4721 5.172V7.764C72.1601 7.74 71.9501 7.728 71.8421 7.728C71.0381 7.728 70.4081 7.956 69.9521 8.412C69.4961 8.856 69.2681 9.528 69.2681 10.428V15H66.4601V5.316H69.1421V6.594ZM74.1417 5.316H76.9497V15H74.1417V5.316ZM75.5457 3.966C75.0297 3.966 74.6097 3.816 74.2857 3.516C73.9617 3.216 73.7997 2.844 73.7997 2.4C73.7997 1.956 73.9617 1.584 74.2857 1.284C74.6097 0.983999 75.0297 0.833999 75.5457 0.833999C76.0617 0.833999 76.4817 0.977999 76.8057 1.266C77.1297 1.554 77.2917 1.914 77.2917 2.346C77.2917 2.814 77.1297 3.204 76.8057 3.516C76.4817 3.816 76.0617 3.966 75.5457 3.966ZM83.4618 5.172C84.9618 5.172 86.1138 5.532 86.9178 6.252C87.7218 6.96 88.1238 8.034 88.1238 9.474V15H85.4958V13.794C84.9678 14.694 83.9838 15.144 82.5438 15.144C81.7998 15.144 81.1518 15.018 80.5998 14.766C80.0598 14.514 79.6458 14.166 79.3578 13.722C79.0698 13.278 78.9258 12.774 78.9258 12.21C78.9258 11.31 79.2618 10.602 79.9338 10.086C80.6178 9.57 81.6678 9.312 83.0838 9.312H85.3158C85.3158 8.7 85.1298 8.232 84.7578 7.908C84.3858 7.572 83.8278 7.404 83.0838 7.404C82.5678 7.404 82.0578 7.488 81.5538 7.656C81.0618 7.812 80.6418 8.028 80.2938 8.304L79.2858 6.342C79.8138 5.97 80.4438 5.682 81.1758 5.478C81.9198 5.274 82.6818 5.172 83.4618 5.172ZM83.2458 13.254C83.7258 13.254 84.1518 13.146 84.5238 12.93C84.8958 12.702 85.1598 12.372 85.3158 11.94V10.95H83.3898C82.2378 10.95 81.6618 11.328 81.6618 12.084C81.6618 12.444 81.7998 12.732 82.0758 12.948C82.3638 13.152 82.7538 13.254 83.2458 13.254ZM91.7271 15.144C91.2351 15.144 90.8211 14.976 90.4851 14.64C90.1491 14.304 89.9811 13.884 89.9811 13.38C89.9811 12.864 90.1491 12.45 90.4851 12.138C90.8211 11.814 91.2351 11.652 91.7271 11.652C92.2191 11.652 92.6331 11.814 92.9691 12.138C93.3051 12.45 93.4731 12.864 93.4731 13.38C93.4731 13.884 93.3051 14.304 92.9691 14.64C92.6331 14.976 92.2191 15.144 91.7271 15.144Z" fill="white"/>
</svg>
