<svg width="379" height="64" viewBox="0 0 379 64" fill="none" xmlns="http://www.w3.org/2000/svg">
<path fill-rule="evenodd" clip-rule="evenodd" d="M61.1324 63V7.16003H48.4924L30.7324 48.68L12.9724 7.16003H0.252441V63H11.4524V26.68L26.4924 63H34.9724L49.9324 26.68V63H61.1324ZM80.3656 60.92C83.7789 62.7867 87.6189 63.72 91.8856 63.72C96.2056 63.72 100.099 62.7867 103.566 60.92C107.086 59 109.859 56.3067 111.886 52.84C113.966 49.3734 115.006 45.3734 115.006 40.84C115.006 36.3067 113.992 32.3067 111.966 28.84C109.992 25.3734 107.272 22.7067 103.806 20.84C100.339 18.92 96.4722 17.96 92.2056 17.96C87.9389 17.96 84.0722 18.92 80.6056 20.84C77.1389 22.7067 74.3922 25.3734 72.3656 28.84C70.3922 32.3067 69.4056 36.3067 69.4056 40.84C69.4056 45.3734 70.3656 49.3734 72.2856 52.84C74.2589 56.3067 76.9522 59 80.3656 60.92ZM97.5656 52.52C95.8056 53.48 93.9122 53.96 91.8856 53.96C88.6856 53.96 86.0189 52.84 83.8856 50.6C81.8056 48.3067 80.7656 45.0534 80.7656 40.84C80.7656 36.6267 81.8322 33.4 83.9656 31.16C86.1522 28.8667 88.8456 27.72 92.0456 27.72C95.2456 27.72 97.9389 28.8667 100.126 31.16C102.366 33.4 103.486 36.6267 103.486 40.84C103.486 43.6667 102.952 46.0667 101.886 48.04C100.819 50.0134 99.3789 51.5067 97.5656 52.52ZM160.581 23.08C157.328 19.72 153.061 18.04 147.781 18.04C145.008 18.04 142.448 18.6 140.101 19.72C137.808 20.7867 135.915 22.28 134.421 24.2V18.68H123.221V63H134.421V38.52C134.421 35 135.301 32.3067 137.061 30.44C138.875 28.52 141.328 27.56 144.421 27.56C147.461 27.56 149.861 28.52 151.621 30.44C153.381 32.3067 154.261 35 154.261 38.52V63H165.461V37C165.461 31.0267 163.835 26.3867 160.581 23.08ZM176.832 11.56C178.165 12.7867 179.818 13.4 181.792 13.4C183.765 13.4 185.392 12.7867 186.672 11.56C188.005 10.28 188.672 8.7067 188.672 6.84003C188.672 4.97336 188.005 3.4267 186.672 2.20003C185.392 0.920029 183.765 0.280029 181.792 0.280029C179.818 0.280029 178.165 0.920029 176.832 2.20003C175.552 3.4267 174.912 4.97336 174.912 6.84003C174.912 8.7067 175.552 10.28 176.832 11.56ZM176.112 63H187.312V18.68H176.112V63ZM211.417 49.32V27.88H221.337V18.68H211.417V7.72003H200.137V18.68H194.857V27.88H200.137V49.24C200.137 58.4134 204.857 63 214.297 63H221.337V53.56H216.137C214.431 53.56 213.204 53.24 212.457 52.6C211.764 51.9067 211.417 50.8134 211.417 49.32ZM237.553 60.92C240.966 62.7867 244.806 63.72 249.073 63.72C253.393 63.72 257.286 62.7867 260.753 60.92C264.273 59 267.046 56.3067 269.073 52.84C271.153 49.3734 272.193 45.3734 272.193 40.84C272.193 36.3067 271.18 32.3067 269.153 28.84C267.18 25.3734 264.46 22.7067 260.993 20.84C257.526 18.92 253.66 17.96 249.393 17.96C245.126 17.96 241.26 18.92 237.793 20.84C234.326 22.7067 231.58 25.3734 229.553 28.84C227.58 32.3067 226.593 36.3067 226.593 40.84C226.593 45.3734 227.553 49.3734 229.473 52.84C231.446 56.3067 234.14 59 237.553 60.92ZM254.753 52.52C252.993 53.48 251.1 53.96 249.073 53.96C245.873 53.96 243.206 52.84 241.073 50.6C238.993 48.3067 237.953 45.0534 237.953 40.84C237.953 36.6267 239.02 33.4 241.153 31.16C243.34 28.8667 246.033 27.72 249.233 27.72C252.433 27.72 255.126 28.8667 257.313 31.16C259.553 33.4 260.673 36.6267 260.673 40.84C260.673 43.6667 260.14 46.0667 259.073 48.04C258.006 50.0134 256.566 51.5067 254.753 52.52ZM297.209 20.04C294.915 21.3734 293.049 23.2134 291.609 25.56V18.68H280.409V63H291.609V40.92C291.609 36.8134 292.489 33.9334 294.249 32.28C296.062 30.6267 298.729 29.8 302.249 29.8H305.209V18.04C302.222 18.04 299.555 18.7067 297.209 20.04ZM313.472 11.56C314.806 12.7867 316.459 13.4 318.432 13.4C320.406 13.4 322.032 12.7867 323.312 11.56C324.646 10.28 325.312 8.7067 325.312 6.84003C325.312 4.97336 324.646 3.4267 323.312 2.20003C322.032 0.920029 320.406 0.280029 318.432 0.280029C316.459 0.280029 314.806 0.920029 313.472 2.20003C312.192 3.4267 311.552 4.97336 311.552 6.84003C311.552 8.7067 312.192 10.28 313.472 11.56ZM312.752 63H323.952V18.68H312.752V63ZM334.778 28.76C333.018 32.2267 332.138 36.2 332.138 40.68C332.138 45.2134 333.018 49.24 334.778 52.76C336.591 56.2267 339.018 58.92 342.058 60.84C345.151 62.76 348.565 63.72 352.298 63.72C355.605 63.72 358.511 63.0534 361.018 61.72C363.578 60.3334 365.578 58.6 367.018 56.52V63H378.298V18.68H367.018V25C365.525 22.9734 363.525 21.2934 361.018 19.96C358.565 18.6267 355.685 17.96 352.378 17.96C348.591 17.96 345.151 18.8934 342.058 20.76C339.018 22.6267 336.591 25.2934 334.778 28.76ZM365.418 33.88C366.485 35.8 367.018 38.12 367.018 40.84C367.018 43.56 366.485 45.9067 365.418 47.88C364.351 49.8 362.911 51.2934 361.098 52.36C359.285 53.3734 357.338 53.88 355.258 53.88C353.231 53.88 351.311 53.3467 349.498 52.28C347.738 51.2134 346.298 49.6934 345.178 47.72C344.111 45.6934 343.578 43.3467 343.578 40.68C343.578 38.0134 344.111 35.72 345.178 33.8C346.298 31.8267 347.738 30.3334 349.498 29.32C351.258 28.3067 353.178 27.8 355.258 27.8C357.338 27.8 359.285 28.3334 361.098 29.4C362.911 30.4134 364.351 31.9067 365.418 33.88Z" fill="url(#paint0_linear)"/>
<defs>
<linearGradient id="paint0_linear" x1="383.482" y1="30.5001" x2="-5.26759" y2="30.5001" gradientUnits="userSpaceOnUse">
<stop stop-color="#55ED92"/>
<stop offset="1" stop-color="#C345FE"/>
</linearGradient>
</defs>
</svg>
